<?xml version="1.0" encoding="UTF-8" standalone="no"?>
<!DOCTYPE svg PUBLIC "-//W3C//DTD SVG 1.1//EN"
 "http://www.w3.org/Graphics/SVG/1.1/DTD/svg11.dtd">
<!-- Generated by graphviz version 2.43.0 (0)
 -->
<!-- Title: G Pages: 1 -->
<svg width="1100pt" height="720pt"
 viewBox="0.00 0.00 1100.00 720.00" xmlns="http://www.w3.org/2000/svg" xmlns:xlink="http://www.w3.org/1999/xlink">
<g id="graph0" class="graph" transform="scale(1.01 1.01) rotate(0) translate(4 724)">
<title>G</title>
<polygon fill="white" stroke="transparent" points="-4,4 -4,-724 1084.61,-724 1084.61,4 -4,4"/>
<g id="clust1" class="cluster">
<title>cluster_0</title>
<polygon fill="#000000" fill-opacity="0.058824" stroke="#000000" stroke-opacity="0.058824" points="622.41,-229.92 622.41,-582.35 991.44,-582.35 991.44,-229.92 622.41,-229.92"/>
<text text-anchor="middle" x="806.92" y="-567.15" font-family="Times,serif" font-size="14.00">Extractor</text>
</g>
<g id="clust2" class="cluster">
<title>cluster_1</title>
<polygon fill="#000000" fill-opacity="0.058824" stroke="#000000" stroke-opacity="0.058824" points="765.1,-355.46 765.1,-468.91 981.59,-468.91 981.59,-355.46 765.1,-355.46"/>
<text text-anchor="middle" x="873.35" y="-453.71" font-family="Times,serif" font-size="14.00">Translator</text>
</g>
<g id="clust3" class="cluster">
<title>cluster_2</title>
<polygon fill="#000000" fill-opacity="0.058824" stroke="#000000" stroke-opacity="0.058824" points="9.84,-12.1 9.84,-343.36 150.07,-343.36 150.07,-12.1 9.84,-12.1"/>
<text text-anchor="middle" x="79.95" y="-328.16" font-family="Times,serif" font-size="14.00">ND</text>
</g>
<g id="clust4" class="cluster">
<title>cluster_3</title>
<polygon fill="#000000" fill-opacity="0.058824" stroke="#000000" stroke-opacity="0.058824" points="159.91,-229.92 159.91,-468.91 612.57,-468.91 612.57,-229.92 159.91,-229.92"/>
<text text-anchor="middle" x="386.24" y="-453.71" font-family="Times,serif" font-size="14.00">PPA</text>
</g>
<g id="clust5" class="cluster">
<title>cluster_4</title>
<polygon fill="#000000" fill-opacity="0.058824" stroke="#000000" stroke-opacity="0.058824" points="564.6,-594.45 564.6,-707.9 667.93,-707.9 667.93,-594.45 564.6,-594.45"/>
<text text-anchor="middle" x="616.26" y="-692.7" font-family="Times,serif" font-size="14.00">app</text>
</g>
<!-- u6 -->
<g id="node1" class="node">
<title>u6</title>
<ellipse fill="#bbbbff" stroke="black" stroke-width="0" cx="929.19" cy="-395.1" rx="35.19" ry="18"/>
<text text-anchor="middle" x="929.19" y="-391.4" font-family="Times,serif" font-size="14.00">Form</text>
</g>
<!-- u7 -->
<g id="node5" class="node">
<title>u7</title>
<ellipse fill="#ffffbb" stroke="black" stroke-width="0" cx="925.19" cy="-269.1" rx="38.19" ry="18"/>
<text text-anchor="middle" x="925.19" y="-265.4" font-family="Times,serif" font-size="14.00">Types</text>
</g>
<!-- u6&#45;&gt;u7 -->
<g id="edge13" class="edge">
<title>u6&#45;&gt;u7</title>
<path fill="none" stroke="black" d="M928.64,-376.86C927.97,-356.32 926.86,-321.73 926.08,-297.51"/>
<polygon fill="black" stroke="black" points="929.57,-297.08 925.75,-287.2 922.57,-297.3 929.57,-297.08"/>
</g>
<!-- u12 -->
<g id="node2" class="node">
<title>u12</title>
<ellipse fill="#bbbbff" stroke="black" stroke-width="0" cx="819.19" cy="-395.1" rx="36" ry="18"/>
<text text-anchor="middle" x="819.19" y="-391.4" font-family="Times,serif" font-size="14.00">Proof</text>
</g>
<!-- u5 -->
<g id="node4" class="node">
<title>u5</title>
<ellipse fill="#ffffbb" stroke="black" stroke-width="0" cx="797.19" cy="-269.1" rx="47.39" ry="18"/>
<text text-anchor="middle" x="797.19" y="-265.4" font-family="Times,serif" font-size="14.00">RProofs</text>
</g>
<!-- u12&#45;&gt;u5 -->
<g id="edge14" class="edge">
<title>u12&#45;&gt;u5</title>
<path fill="none" stroke="black" d="M816.18,-377.12C812.53,-356.55 806.34,-321.64 802.02,-297.3"/>
<polygon fill="black" stroke="black" points="805.43,-296.51 800.24,-287.28 798.54,-297.73 805.43,-296.51"/>
</g>
<!-- u10 -->
<g id="node8" class="node">
<title>u10</title>
<ellipse fill="#ffbbbb" stroke="black" stroke-width="0" cx="93.19" cy="-160.1" rx="37.89" ry="18"/>
<text text-anchor="middle" x="93.19" y="-156.4" font-family="Times,serif" font-size="14.00">Subst</text>
</g>
<!-- u12&#45;&gt;u10 -->
<g id="edge15" class="edge">
<title>u12&#45;&gt;u10</title>
<path fill="none" stroke="black" d="M797.84,-380.45C771.24,-363.1 727.84,-333.54 716.19,-318.1 694.77,-289.69 715.97,-265.34 688.19,-243.1 603.98,-175.66 267.14,-163.67 141.11,-161.55"/>
<polygon fill="black" stroke="black" points="141.04,-158.05 130.99,-161.39 140.93,-165.05 141.04,-158.05"/>
</g>
<!-- u11 -->
<g id="node11" class="node">
<title>u11</title>
<ellipse fill="#bbffff" stroke="black" stroke-width="0" cx="567.19" cy="-269.1" rx="28.7" ry="18"/>
<text text-anchor="middle" x="567.19" y="-265.4" font-family="Times,serif" font-size="14.00">PPA</text>
</g>
<!-- u12&#45;&gt;u11 -->
<g id="edge16" class="edge">
<title>u12&#45;&gt;u11</title>
<path fill="none" stroke="black" d="M798.3,-380.38C792.23,-376.57 785.53,-372.54 779.19,-369.1 717.27,-335.45 641.92,-301.95 599.77,-283.84"/>
<polygon fill="black" stroke="black" points="601.12,-280.61 590.55,-279.9 598.37,-287.05 601.12,-280.61"/>
</g>
<!-- u4 -->
<g id="node3" class="node">
<title>u4</title>
<ellipse fill="#ffffbb" stroke="black" stroke-width="0" cx="702.19" cy="-508.1" rx="55.49" ry="18"/>
<text text-anchor="middle" x="702.19" y="-504.4" font-family="Times,serif" font-size="14.00">Extractor</text>
</g>
<!-- u4&#45;&gt;u12 -->
<g id="edge5" class="edge">
<title>u4&#45;&gt;u12</title>
<path fill="none" stroke="black" d="M723.7,-491.28C739.68,-479.11 761.65,-461.49 779.19,-444.1 786.63,-436.73 794.14,-428.1 800.62,-420.2"/>
<polygon fill="black" stroke="black" points="803.41,-422.31 806.94,-412.32 797.95,-417.93 803.41,-422.31"/>
</g>
<!-- u9 -->
<g id="node6" class="node">
<title>u9</title>
<ellipse fill="#ffffbb" stroke="black" stroke-width="0" cx="692.19" cy="-395.1" rx="49.29" ry="18"/>
<text text-anchor="middle" x="692.19" y="-391.4" font-family="Times,serif" font-size="14.00">Reducer</text>
</g>
<!-- u4&#45;&gt;u9 -->
<g id="edge4" class="edge">
<title>u4&#45;&gt;u9</title>
<path fill="none" stroke="black" d="M700.63,-489.76C699.03,-472 696.52,-444.14 694.65,-423.42"/>
<polygon fill="black" stroke="black" points="698.13,-422.97 693.75,-413.32 691.16,-423.6 698.13,-422.97"/>
</g>
<!-- u13 -->
<g id="node12" class="node">
<title>u13</title>
<ellipse fill="#bbffff" stroke="black" stroke-width="0" cx="334.19" cy="-395.1" rx="50.09" ry="18"/>
<text text-anchor="middle" x="334.19" y="-391.4" font-family="Times,serif" font-size="14.00">Certifier</text>
</g>
<!-- u4&#45;&gt;u13 -->
<g id="edge6" class="edge">
<title>u4&#45;&gt;u13</title>
<path fill="none" stroke="black" d="M655.18,-498.45C586.18,-485.45 461,-460.64 418.19,-444.1 399.73,-436.97 380.46,-426.23 365.04,-416.71"/>
<polygon fill="black" stroke="black" points="366.77,-413.66 356.44,-411.29 363.03,-419.58 366.77,-413.66"/>
</g>
<!-- u5&#45;&gt;u6 -->
<g id="edge7" class="edge">
<title>u5&#45;&gt;u6</title>
<path fill="none" stroke="black" d="M814.35,-286.22C837.58,-308.04 879.15,-347.09 905.39,-371.74"/>
<polygon fill="black" stroke="black" points="903.32,-374.6 913.01,-378.9 908.12,-369.5 903.32,-374.6"/>
</g>
<!-- u8 -->
<g id="node10" class="node">
<title>u8</title>
<ellipse fill="#bbffff" stroke="black" stroke-width="0" cx="347.19" cy="-269.1" rx="40.09" ry="18"/>
<text text-anchor="middle" x="347.19" y="-265.4" font-family="Times,serif" font-size="14.00">Proofs</text>
</g>
<!-- u5&#45;&gt;u8 -->
<g id="edge8" class="edge">
<title>u5&#45;&gt;u8</title>
<path fill="none" stroke="black" d="M783.1,-286.35C766.97,-304.59 738.68,-332.26 707.19,-343.6 648.65,-364.69 485.09,-366.39 427.19,-343.6 402.15,-333.75 380.31,-311.95 365.8,-294.47"/>
<polygon fill="black" stroke="black" points="368.26,-291.94 359.29,-286.3 362.79,-296.3 368.26,-291.94"/>
</g>
<!-- u2 -->
<g id="node7" class="node">
<title>u2</title>
<ellipse fill="#ffbbbb" stroke="black" stroke-width="0" cx="107.19" cy="-51.1" rx="27" ry="18"/>
<text text-anchor="middle" x="107.19" y="-47.4" font-family="Times,serif" font-size="14.00">ND</text>
</g>
<!-- u7&#45;&gt;u2 -->
<g id="edge10" class="edge">
<title>u7&#45;&gt;u2</title>
<path fill="none" stroke="black" d="M895.43,-257.73C882.46,-253.22 867.08,-247.88 853.19,-243.1 721.76,-197.86 691.41,-178.25 557.19,-142.1 405.47,-101.23 220.44,-69.92 143.47,-57.69"/>
<polygon fill="black" stroke="black" points="143.77,-54.2 133.34,-56.09 142.68,-61.11 143.77,-54.2"/>
</g>
<!-- u3 -->
<g id="node18" class="node">
<title>u3</title>
<ellipse fill="#bbffbb" stroke="black" stroke-width="0" cx="483.19" cy="-160.1" rx="40.09" ry="18"/>
<text text-anchor="middle" x="483.19" y="-156.4" font-family="Times,serif" font-size="14.00">Result</text>
</g>
<!-- u7&#45;&gt;u3 -->
<g id="edge9" class="edge">
<title>u7&#45;&gt;u3</title>
<path fill="none" stroke="black" d="M896.36,-257.23C883.29,-252.53 867.58,-247.18 853.19,-243.1 738.26,-210.53 600.23,-182.91 529.69,-169.6"/>
<polygon fill="black" stroke="black" points="530.25,-166.15 519.78,-167.75 528.96,-173.03 530.25,-166.15"/>
</g>
<!-- u9&#45;&gt;u10 -->
<g id="edge11" class="edge">
<title>u9&#45;&gt;u10</title>
<path fill="none" stroke="black" d="M688.86,-376.73C681.71,-344.64 661.72,-276.3 616.19,-243.1 540.67,-188.03 255,-168.71 140.79,-163.09"/>
<polygon fill="black" stroke="black" points="140.77,-159.58 130.61,-162.6 140.43,-166.58 140.77,-159.58"/>
</g>
<!-- u9&#45;&gt;u11 -->
<g id="edge12" class="edge">
<title>u9&#45;&gt;u11</title>
<path fill="none" stroke="black" d="M675.85,-377.89C653.66,-355.88 613.93,-316.47 589.15,-291.89"/>
<polygon fill="black" stroke="black" points="591.55,-289.33 581.98,-284.77 586.62,-294.3 591.55,-289.33"/>
</g>
<!-- u10&#45;&gt;u2 -->
<g id="edge17" class="edge">
<title>u10&#45;&gt;u2</title>
<path fill="none" stroke="black" d="M95.44,-141.91C97.66,-124.98 101.07,-98.88 103.65,-79.17"/>
<polygon fill="black" stroke="black" points="107.12,-79.62 104.95,-69.25 100.18,-78.71 107.12,-79.62"/>
</g>
<!-- u15 -->
<g id="node9" class="node">
<title>u15</title>
<ellipse fill="#ffbbbb" stroke="black" stroke-width="0" cx="80.19" cy="-269.1" rx="48.99" ry="18"/>
<text text-anchor="middle" x="80.19" y="-265.4" font-family="Times,serif" font-size="14.00">Checker</text>
</g>
<!-- u15&#45;&gt;u10 -->
<g id="edge18" class="edge">
<title>u15&#45;&gt;u10</title>
<path fill="none" stroke="black" d="M82.28,-250.91C84.33,-234.06 87.48,-208.12 89.87,-188.44"/>
<polygon fill="black" stroke="black" points="93.38,-188.6 91.11,-178.25 86.43,-187.75 93.38,-188.6"/>
</g>
<!-- u8&#45;&gt;u2 -->
<g id="edge20" class="edge">
<title>u8&#45;&gt;u2</title>
<path fill="none" stroke="black" d="M329.93,-252.57C287.57,-214.44 178.4,-116.19 130.41,-73"/>
<polygon fill="black" stroke="black" points="132.5,-70.17 122.72,-66.08 127.82,-75.37 132.5,-70.17"/>
</g>
<!-- u8&#45;&gt;u3 -->
<g id="edge19" class="edge">
<title>u8&#45;&gt;u3</title>
<path fill="none" stroke="black" d="M366.39,-253C389.78,-234.6 429.45,-203.39 455.98,-182.51"/>
<polygon fill="black" stroke="black" points="458.4,-185.06 464.09,-176.13 454.07,-179.56 458.4,-185.06"/>
</g>
<!-- u11&#45;&gt;u2 -->
<g id="edge22" class="edge">
<title>u11&#45;&gt;u2</title>
<path fill="none" stroke="black" d="M567.67,-251.04C567.45,-223.86 562.8,-170.86 532.19,-142.1 475.76,-89.08 236.43,-63.21 143.91,-55.05"/>
<polygon fill="black" stroke="black" points="144.15,-51.56 133.89,-54.19 143.55,-58.53 144.15,-51.56"/>
</g>
<!-- u11&#45;&gt;u3 -->
<g id="edge21" class="edge">
<title>u11&#45;&gt;u3</title>
<path fill="none" stroke="black" d="M555.16,-252.77C541.36,-235.2 518.57,-206.16 502.33,-185.48"/>
<polygon fill="black" stroke="black" points="504.96,-183.16 496.03,-177.46 499.45,-187.48 504.96,-183.16"/>
</g>
<!-- u13&#45;&gt;u15 -->
<g id="edge23" class="edge">
<title>u13&#45;&gt;u15</title>
<path fill="none" stroke="black" d="M300.66,-381.63C264.31,-367.7 204.99,-343.72 156.19,-318.1 140.78,-310.01 124.37,-299.85 110.75,-290.97"/>
<polygon fill="black" stroke="black" points="112.52,-287.94 102.25,-285.35 108.66,-293.78 112.52,-287.94"/>
</g>
<!-- u13&#45;&gt;u8 -->
<g id="edge24" class="edge">
<title>u13&#45;&gt;u8</title>
<path fill="none" stroke="black" d="M336,-376.86C338.16,-356.22 341.81,-321.42 344.35,-297.18"/>
<polygon fill="black" stroke="black" points="347.84,-297.51 345.4,-287.2 340.88,-296.78 347.84,-297.51"/>
</g>
<!-- u13&#45;&gt;u11 -->
<g id="edge25" class="edge">
<title>u13&#45;&gt;u11</title>
<path fill="none" stroke="black" d="M369.75,-382.23C406.4,-369.22 464.48,-346.37 510.19,-318.1 522.35,-310.59 534.63,-300.62 544.66,-291.71"/>
<polygon fill="black" stroke="black" points="547.14,-294.19 552.18,-284.87 542.43,-289.01 547.14,-294.19"/>
</g>
<!-- u14 -->
<g id="node13" class="node">
<title>u14</title>
<ellipse fill="#bbffff" stroke="black" stroke-width="0" cx="222.19" cy="-269.1" rx="42.79" ry="18"/>
<text text-anchor="middle" x="222.19" y="-265.4" font-family="Times,serif" font-size="14.00">Unifier</text>
</g>
<!-- u13&#45;&gt;u14 -->
<g id="edge26" class="edge">
<title>u13&#45;&gt;u14</title>
<path fill="none" stroke="black" d="M319.32,-377.63C299.88,-356.12 265.71,-318.28 243.52,-293.71"/>
<polygon fill="black" stroke="black" points="246.07,-291.32 236.77,-286.24 240.88,-296.01 246.07,-291.32"/>
</g>
<!-- u14&#45;&gt;u2 -->
<g id="edge28" class="edge">
<title>u14&#45;&gt;u2</title>
<path fill="none" stroke="black" d="M213.17,-251.15C193.04,-213.35 144.39,-121.97 120.66,-77.4"/>
<polygon fill="black" stroke="black" points="123.65,-75.56 115.86,-68.38 117.47,-78.85 123.65,-75.56"/>
</g>
<!-- u14&#45;&gt;u3 -->
<g id="edge27" class="edge">
<title>u14&#45;&gt;u3</title>
<path fill="none" stroke="black" d="M251.88,-255.93C299.42,-236.44 392.62,-198.23 445.04,-176.74"/>
<polygon fill="black" stroke="black" points="446.41,-179.96 454.33,-172.93 443.75,-173.49 446.41,-179.96"/>
</g>
<!-- u16 -->
<g id="node14" class="node">
<title>u16</title>
<ellipse fill="#bbffff" stroke="black" stroke-width="0" cx="468.19" cy="-395.1" rx="40.89" ry="18"/>
<text text-anchor="middle" x="468.19" y="-391.4" font-family="Times,serif" font-size="14.00">Parser</text>
</g>
<!-- u16&#45;&gt;u11 -->
<g id="edge29" class="edge">
<title>u16&#45;&gt;u11</title>
<path fill="none" stroke="black" d="M481.14,-377.89C498.3,-356.4 528.7,-318.32 548.39,-293.65"/>
<polygon fill="black" stroke="black" points="551.37,-295.53 554.87,-285.54 545.9,-291.17 551.37,-295.53"/>
</g>
<!-- u17 -->
<g id="node15" class="node">
<title>u17</title>
<ellipse fill="#bbffff" stroke="black" stroke-width="0" cx="464.19" cy="-269.1" rx="37.09" ry="18"/>
<text text-anchor="middle" x="464.19" y="-265.4" font-family="Times,serif" font-size="14.00">Lexer</text>
</g>
<!-- u16&#45;&gt;u17 -->
<g id="edge30" class="edge">
<title>u16&#45;&gt;u17</title>
<path fill="none" stroke="black" d="M467.64,-376.86C466.97,-356.32 465.86,-321.73 465.08,-297.51"/>
<polygon fill="black" stroke="black" points="468.57,-297.08 464.75,-287.2 461.57,-297.3 468.57,-297.08"/>
</g>
<!-- u0 -->
<g id="node16" class="node">
<title>u0</title>
<ellipse fill="#ffbbff" stroke="black" stroke-width="0" cx="616.19" cy="-634.1" rx="34.39" ry="18"/>
<text text-anchor="middle" x="616.19" y="-630.4" font-family="Times,serif" font-size="14.00">Main</text>
</g>
<!-- u0&#45;&gt;u4 -->
<g id="edge33" class="edge">
<title>u0&#45;&gt;u4</title>
<path fill="none" stroke="black" d="M627.44,-616.89C642.03,-595.84 667.67,-558.89 684.79,-534.2"/>
<polygon fill="black" stroke="black" points="687.85,-535.92 690.67,-525.71 682.1,-531.93 687.85,-535.92"/>
</g>
<!-- u0&#45;&gt;u16 -->
<g id="edge34" class="edge">
<title>u0&#45;&gt;u16</title>
<path fill="none" stroke="black" d="M583.61,-628.09C545.52,-620.31 484.13,-601.29 456.19,-557.1 430.27,-516.09 444.89,-456.93 457.08,-422.92"/>
<polygon fill="black" stroke="black" points="460.48,-423.81 460.73,-413.22 453.93,-421.34 460.48,-423.81"/>
</g>
<!-- u1 -->
<g id="node17" class="node">
<title>u1</title>
<ellipse fill="#bbffbb" stroke="black" stroke-width="0" cx="1040.19" cy="-269.1" rx="32.49" ry="18"/>
<text text-anchor="middle" x="1040.19" y="-265.4" font-family="Times,serif" font-size="14.00">Args</text>
</g>
<!-- u0&#45;&gt;u1 -->
<g id="edge31" class="edge">
<title>u0&#45;&gt;u1</title>
<path fill="none" stroke="black" d="M650.27,-631.13C734.24,-625.53 947.71,-606.64 995.19,-557.1 1064.05,-485.27 1053.5,-353.7 1045.04,-297.13"/>
<polygon fill="black" stroke="black" points="1048.49,-296.49 1043.46,-287.16 1041.57,-297.59 1048.49,-296.49"/>
</g>
<!-- u18 -->
<g id="node19" class="node">
<title>u18</title>
<ellipse fill="#bbffbb" stroke="black" stroke-width="0" cx="531.19" cy="-508.1" rx="65.79" ry="18"/>
<text text-anchor="middle" x="531.19" y="-504.4" font-family="Times,serif" font-size="14.00">PrettyShow</text>
</g>
<!-- u0&#45;&gt;u18 -->
<g id="edge32" class="edge">
<title>u0&#45;&gt;u18</title>
<path fill="none" stroke="black" d="M605.08,-616.89C590.73,-595.96 565.6,-559.3 548.68,-534.61"/>
<polygon fill="black" stroke="black" points="551.39,-532.38 542.85,-526.11 545.62,-536.34 551.39,-532.38"/>
</g>
<!-- u1&#45;&gt;u2 -->
<g id="edge2" class="edge">
<title>u1&#45;&gt;u2</title>
<path fill="none" stroke="black" d="M1019.19,-255.07C1011.8,-250.85 1003.3,-246.41 995.19,-243.1 681.36,-114.89 268.38,-67.32 144.11,-55.37"/>
<polygon fill="black" stroke="black" points="144.27,-51.87 133.98,-54.41 143.61,-58.83 144.27,-51.87"/>
</g>
<!-- u1&#45;&gt;u3 -->
<g id="edge1" class="edge">
<title>u1&#45;&gt;u3</title>
<path fill="none" stroke="black" d="M1019.84,-254.82C1012.35,-250.48 1003.64,-246.02 995.19,-243.1 832.21,-186.74 626.45,-168.81 533.19,-163.36"/>
<polygon fill="black" stroke="black" points="533.37,-159.86 523.19,-162.8 532.98,-166.85 533.37,-159.86"/>
</g>
<!-- u18&#45;&gt;u11 -->
<g id="edge3" class="edge">
<title>u18&#45;&gt;u11</title>
<path fill="none" stroke="black" d="M533.78,-490.06C539.96,-449.42 555.58,-346.54 563.07,-297.25"/>
<polygon fill="black" stroke="black" points="566.54,-297.72 564.58,-287.31 559.62,-296.67 566.54,-297.72"/>
</g>
</g>
</svg>
